<?xml version="1.0" encoding="UTF-8" standalone="no"?>
<!-- Created with Inkscape (http://www.inkscape.org/) -->

<svg
   width="31.75mm"
   height="31.75mm"
   viewBox="0 0 31.75 31.75"
   version="1.1"
   id="svg1"
   inkscape:version="1.3.2 (091e20e, 2023-11-25, custom)"
   sodipodi:docname="applyToAll.svg"
   xmlns:inkscape="http://www.inkscape.org/namespaces/inkscape"
   xmlns:sodipodi="http://sodipodi.sourceforge.net/DTD/sodipodi-0.dtd"
   xmlns="http://www.w3.org/2000/svg"
   xmlns:svg="http://www.w3.org/2000/svg">
  <sodipodi:namedview
     id="namedview1"
     pagecolor="#505050"
     bordercolor="#eeeeee"
     borderopacity="1"
     inkscape:showpageshadow="0"
     inkscape:pageopacity="0"
     inkscape:pagecheckerboard="0"
     inkscape:deskcolor="#d1d1d1"
     inkscape:document-units="mm"
     showgrid="true"
     inkscape:zoom="0.97638868"
     inkscape:cx="63.499303"
     inkscape:cy="85.519222"
     inkscape:window-width="1920"
     inkscape:window-height="1013"
     inkscape:window-x="-9"
     inkscape:window-y="-9"
     inkscape:window-maximized="1"
     inkscape:current-layer="layer1">
    <inkscape:grid
       id="grid1"
       units="px"
       originx="0"
       originy="0"
       spacingx="0.26458333"
       spacingy="0.26458334"
       empcolor="#0099e5"
       empopacity="0.30196078"
       color="#0099e5"
       opacity="0.14901961"
       empspacing="5"
       dotted="false"
       gridanglex="30"
       gridanglez="30"
       visible="true" />
  </sodipodi:namedview>
  <defs
     id="defs1" />
  <g
     inkscape:label="Calque 1"
     inkscape:groupmode="layer"
     id="layer1">
    <path
       d="M 5.8750936,22.607922 C 5.5743564,22.305932 5.276407,22.000668 4.9836751,21.714437 4.3234655,20.947438 3.5386352,20.261553 2.7910441,19.547644 v 3.060278 h 2.5001058 z"
       style="fill:#118cff;stroke-linecap:square;stroke-linejoin:bevel"
       id="path10" />
    <path
       d="m 22.806877,12.983704 c -1.02417,1.309019 -2.062121,2.607863 -3.106787,3.90157 l 0.721919,0.722437 h -1.30483 c -1.2247,1.515053 -2.449272,3.029757 -3.65249,4.560445 -0.08901,0.150753 -0.186994,0.296596 -0.288871,0.439766 h 5.246191 l -3.667993,3.669544 -1.769401,1.767851 3.536735,3.536735 1.767851,-1.769401 9.434566,-9.738941 z"
       style="fill:#118cff;stroke-linecap:square;stroke-linejoin:bevel"
       id="path9" />
    <path
       d="M 19.117179,17.607711 H 5.2911499 2.7910441 v 1.939933 c 0.7475912,0.713909 1.5324212,1.399794 2.192631,2.166793 0.2927319,0.286231 0.5906813,0.591495 0.8914185,0.893485 h 9.3007244 c 0.101877,-0.14317 0.199856,-0.289013 0.288871,-0.439766 1.203218,-1.530688 2.42779,-3.045391 3.65249,-4.560445 z"
       style="fill:#118cff;stroke-linecap:square;stroke-linejoin:bevel;fill-opacity:0.53136533"
       id="path8" />
    <path
       d="m 22.806877,12.983704 -2.517676,-2.581238 -3.535185,3.535185 2.946074,2.947623 c 1.044666,-1.293707 2.082617,-2.592551 3.106787,-3.90157 z"
       style="fill:#118cff;stroke-linecap:square;stroke-linejoin:bevel;fill-opacity:0.53136533"
       id="path7" />
    <path
       style="fill:none;stroke:#0cc800;stroke-width:5;stroke-linecap:round;stroke-linejoin:round;stroke-dasharray:none;stroke-opacity:1"
       d="M 3.9687498,13.229167 10.583333,20.032845 23.812499,3.9687502"
       id="path2"
       sodipodi:nodetypes="ccc" />
  </g>
</svg>
